PathFileType	4	(X/Y/Z)	C:\Users\°ÂÌØÂü\Desktop\20210112\bx_n_10_1801-Unnamed.trc
DataRate	CameraRate	NumFrames	NumMarkers	Units	OrigDataRate	OrigDataStartFrame	OrigNumFrames
50.00	50.00	       6	0	mm	50.00	212	       563
Frame#	Time	
		

212	4.220	-722.03125	260.58466	750.37378	-722.10034	274.01297	881.94293	-608.32446	-19.59203	810.42316	-611.39319	213.33499	826.67181	-708.11121	154.20885	216.79601	-709.80304	-79.86350	1547.13391				-678.84491	201.21791	539.37689	-712.84381	69.77277	218.57535	-667.25970	52.79975	161.57062	-774.39032	248.71085	503.63934	-736.35938	239.14177	579.74335	-832.67810	78.01868	1054.90100	-651.74139	-70.17805	159.57762	-724.46478	-41.04981	618.08508	-767.63861	225.85635	205.63766	-610.15076	-79.68743	156.70824	-882.43616	296.14734	144.72641	-616.00037	90.23598	1357.40161	-594.09076	20.62230	170.23061	-551.36432	-34.87319	164.99988	-672.93860	174.35258	158.87064	-592.09314	223.27460	174.54243	-660.79041	299.52594	157.33951	-624.85236	307.93045	157.92381	-556.77966	259.08005	165.97061	-528.28461	304.01871	146.81635	-715.24677	90.56979	1850.02283	-704.45886	264.41989	1561.69727	-517.90387	-72.95454	143.08153	-793.57587	175.06300	184.21364	-742.33997	240.93549	645.14612	-787.64325	46.23380	174.56287				-772.73230	-45.00405	488.19534	-759.35809	-15.58865	205.67003	-876.03687	-78.90970	141.42259	-687.36725	-81.81156	877.98157	-674.49658	7.50710	524.23566	-699.70544	66.98345	578.92426	-642.54291	231.37199	1075.00781	-689.79517	139.29010	584.18701	-707.79810	-67.75397	762.41156	-729.26062	-37.20416	569.69122	
213	4.240	-722.01672	260.31320	750.08307	-721.24243	273.97504	881.53741	-606.96106	-19.18008	810.46411	-610.87329	214.08842	825.61700	-708.33679	154.08540	216.92323	-710.92676	-79.35064	1547.18762				-680.11353	201.95226	538.85272	-712.46576	69.82972	218.12189	-667.25970	52.79975	161.57062	-775.35284	248.97560	503.65698	-737.48669	239.13388	579.48993	-831.41650	78.15282	1054.72046	-651.72968	-70.18706	159.54434	-723.39069	-41.45259	618.70313	-767.72699	225.54237	205.70595	-609.80487	-79.51196	156.71492	-882.53522	296.16849	144.69659	-615.95880	90.82040	1357.67981	-594.17664	20.59339	170.10501	-551.05878	-34.95985	165.10320	-672.77081	174.58041	158.70660	-592.28516	223.31833	174.70999	-660.72607	299.49307	157.39267	-624.78119	308.08075	157.83806	-556.85834	259.22858	165.92955	-528.18341	304.11401	146.55998	-717.86548	91.18243	1849.83630	-706.11017	264.71463	1561.92065	-517.96973	-72.95558	143.24773	-793.37701	174.97276	184.28551	-743.39282	241.17572	645.37231	-787.37250	46.23795	174.69028				-772.23950	-44.82912	488.31570	-759.27435	-15.64137	205.70296	-876.00275	-78.74174	141.50209	-686.03754	-81.58475	877.97583	-673.42554	7.93968	524.35248	-699.31531	67.16795	579.08844	-641.67834	231.82974	1075.01648	-691.30450	139.60059	584.02319	-706.73138	-67.45442	762.26428	-728.74048	-37.07232	569.64844	
214	4.260	-722.01672	260.31320	750.08307	-720.51373	274.67728	881.80701	-605.39703	-18.91873	809.87628	-610.26343	214.32127	825.54150	-708.44995	154.00652	216.98990	-711.66748	-79.11814	1547.15210				-680.97675	201.92841	539.07654	-712.33069	69.79449	217.96519	-667.25970	52.79975	161.57062	-776.46106	248.69615	503.78931	-738.97272	238.72478	578.89880	-829.54279	78.41929	1054.68433	-651.64697	-70.05105	159.49205	-723.00140	-41.07176	618.59747	-767.77356	225.55098	205.56204	-610.03485	-79.52478	156.53867	-882.56049	296.14725	144.72035	-615.96552	91.08780	1357.97241	-594.09009	20.68507	170.18216	-550.95972	-34.74060	164.89857	-672.91003	174.49010	158.98589	-591.92944	222.97186	174.40579	-660.73035	299.44507	157.29593	-624.71063	308.03403	157.75888	-556.62274	259.03162	165.94633	-528.16083	304.07205	146.72771	-720.14661	91.63333	1849.58899	-707.12909	264.58148	1561.68481	-517.96869	-73.12807	143.12250	-793.38348	174.88675	184.28313	-744.25793	241.46846	645.65088	-787.29028	46.37319	174.86752				-771.94440	-44.73642	488.06973	-759.09180	-15.33195	205.59132	-876.00275	-78.74174	141.50209	-684.02930	-80.97689	877.82770	-671.72998	8.31126	524.87592	-698.47144	67.43948	578.85138	-639.78632	232.03905	1074.75354	-691.85223	140.02766	584.19293	-705.54462	-67.39891	762.24438	-728.50391	-37.05840	569.93970	
215	4.280	-721.82855	260.48425	749.97949	-719.47736	274.96591	881.92499	-604.03107	-19.19309	809.57678	-609.55286	214.60069	824.88043	-708.81775	153.71883	217.10736	-712.22479	-78.89190	1547.13794				-681.88263	202.22525	538.94574	-712.46576	69.82972	218.12189	-667.33191	52.95297	161.48309	-777.06525	248.74513	503.88672	-739.68060	239.14639	579.73993	-828.48029	78.60468	1054.47156	-651.53339	-70.11382	159.62068	-722.30151	-40.98473	618.56122	-767.90082	225.39220	205.53435	-609.86945	-79.44911	156.43504	-882.51685	296.10837	144.77951	-616.05994	91.13466	1357.90088	-593.98206	20.78435	170.20522	-550.91022	-34.87792	164.92763	-672.58466	174.30623	159.07404	-591.90649	223.07941	174.50418	-660.81598	299.60928	157.37399	-624.62091	308.13110	157.86255	-556.54297	259.01498	165.91899	-528.16132	304.14600	146.69568	-722.43097	92.25922	1849.52527	-707.74500	264.85345	1561.53906	-517.91980	-73.01032	143.17534	-793.50427	175.02144	184.20142	-744.64502	241.43407	645.50159	-787.08252	46.50206	174.68987				-771.71637	-44.34248	488.18701	-758.97821	-15.35461	205.77507	-875.95648	-78.79716	141.44162	-682.80695	-81.04851	877.87317	-672.54352	8.72357	523.63733	-698.30151	67.69112	578.79010	-638.31250	232.64760	1074.52551	-692.71906	139.88716	584.43756	-704.37885	-66.71161	762.25745	-728.28040	-37.04456	570.20184	
216	4.300	-721.95709	260.73270	749.85168	-718.66724	275.26300	881.70502	-603.01727	-18.81979	809.43896	-608.59735	214.70688	824.39459	-709.09760	153.71498	217.29182	-712.48822	-78.64787	1546.82935				-683.07642	202.37645	538.96851	-712.11792	69.99626	217.80728	-667.27179	52.83060	161.24747	-778.16840	249.22478	503.92358	-740.57135	239.62012	579.56274	-827.06995	78.84798	1054.42749	-651.39209	-70.16516	159.78403	-721.76306	-40.67329	618.56860	-768.07672	225.20628	205.48505	-609.79712	-79.53359	156.76154	-882.44672	296.15918	144.79175	-615.52643	91.59948	1358.03455	-594.08032	21.00135	169.93674	-550.55139	-34.88288	164.91774	-672.61505	174.59312	158.67670	-591.87988	222.87798	174.26324	-660.90814	299.61240	157.27858	-624.57697	308.16156	157.70003	-556.56549	259.13324	165.82552	-528.07599	304.08569	146.54619	-723.89752	92.77869	1849.07556	-708.45471	265.22726	1561.53540	-517.85974	-73.07893	143.17383	-793.61804	175.16229	184.14497	-745.18457	241.49815	645.59259	-787.05872	46.66194	174.93080				-771.55127	-44.36247	488.20630	-758.92792	-15.10444	205.82056	-875.99792	-78.69180	141.55168	-681.63092	-80.52214	877.67133	-672.48138	8.85238	523.75604	-698.05676	67.78163	578.79089	-637.26990	232.42712	1074.37793	-693.82605	139.96219	584.32379	-703.57318	-66.58927	762.27991	-728.11560	-36.99618	570.39008	
217	4.320	-721.63745	260.81277	749.38757	-718.13080	275.08136	880.90399	-601.79376	-18.18767	809.30292	-608.43744	214.86171	823.53430	-709.39288	153.66438	217.37660	-712.45636	-78.48534	1546.42773				-683.45813	202.71088	539.16388	-712.17285	70.24073	217.56128	-667.27179	52.83060	161.24747	-778.96863	248.91286	503.82007	-741.37500	239.74290	579.67627	-825.99066	79.07717	1053.88538	-651.52264	-70.02892	159.64877	-721.60938	-40.31584	618.70856	-768.09497	225.11562	205.32062	-609.80487	-79.51196	156.71492	-882.48401	296.23941	144.76350	-615.38135	91.94277	1357.65369	-594.15588	21.22477	169.64932	-550.63147	-34.62083	164.87115	-672.61505	174.59312	158.67670	-591.86194	222.93823	174.33241	-660.81598	299.60928	157.37399	-624.59399	308.21564	157.65311	-556.48065	259.13309	165.79492	-528.14520	304.10596	146.58832	-725.11536	93.47069	1848.73828	-708.73895	265.23990	1561.42749	-517.88171	-72.99678	143.09013	-793.52106	175.06439	184.15648	-745.65869	241.58701	645.65906	-787.13629	46.56581	174.85796				-771.34521	-44.24218	488.00208	-758.74841	-15.04683	205.85739	-875.87335	-78.57735	141.34627	-680.60840	-80.34962	877.71356	-671.54163	8.89408	524.56915	-697.94019	67.83659	578.91046	-636.01312	233.14554	1074.06873	-694.85083	140.29750	584.23480	-702.88489	-66.52407	762.28802	-727.98273	-36.53918	570.26379	
